<mxfile host="Electron" modified="2024-09-14T14:05:46.740Z" agent="Mozilla/5.0 (Macintosh; Intel Mac OS X 10_15_7) AppleWebKit/537.36 (KHTML, like Gecko) draw.io/22.1.16 Chrome/120.0.6099.109 Electron/28.1.0 Safari/537.36" etag="cy524CAtCEIDwhVy9RKH" version="22.1.16" type="device">
  <diagram name="페이지-1" id="dV5V7T9YAM3AuX0POiMk">
    <mxGraphModel dx="1180" dy="713" grid="1" gridSize="10" guides="1" tooltips="1" connect="1" arrows="1" fold="1" page="1" pageScale="1" pageWidth="827" pageHeight="1169" math="0" shadow="0">
      <root>
        <mxCell id="0" />
        <mxCell id="1" parent="0" />
        <mxCell id="UEnZy71EDzjO0Zd2TzoT-1" value="" style="swimlane;startSize=0;" vertex="1" parent="1">
          <mxGeometry x="540" y="10" width="278" height="370" as="geometry" />
        </mxCell>
        <mxCell id="UEnZy71EDzjO0Zd2TzoT-2" value=": 변수 선언" style="text;html=1;align=center;verticalAlign=middle;whiteSpace=wrap;rounded=0;" vertex="1" parent="UEnZy71EDzjO0Zd2TzoT-1">
          <mxGeometry x="170" y="50" width="60" height="30" as="geometry" />
        </mxCell>
        <mxCell id="UEnZy71EDzjO0Zd2TzoT-3" value="" style="rounded=0;whiteSpace=wrap;html=1;" vertex="1" parent="UEnZy71EDzjO0Zd2TzoT-1">
          <mxGeometry x="24" y="110" width="120" height="60" as="geometry" />
        </mxCell>
        <mxCell id="UEnZy71EDzjO0Zd2TzoT-4" value=": 행동 코드" style="text;html=1;align=center;verticalAlign=middle;whiteSpace=wrap;rounded=0;" vertex="1" parent="UEnZy71EDzjO0Zd2TzoT-1">
          <mxGeometry x="170" y="120" width="60" height="30" as="geometry" />
        </mxCell>
        <mxCell id="UEnZy71EDzjO0Zd2TzoT-5" value="~ 동안" style="swimlane;whiteSpace=wrap;html=1;" vertex="1" parent="UEnZy71EDzjO0Zd2TzoT-1">
          <mxGeometry x="24" y="180" width="120" height="70" as="geometry" />
        </mxCell>
        <mxCell id="UEnZy71EDzjO0Zd2TzoT-6" value=": 반복 구문" style="text;html=1;align=center;verticalAlign=middle;whiteSpace=wrap;rounded=0;" vertex="1" parent="UEnZy71EDzjO0Zd2TzoT-1">
          <mxGeometry x="170" y="200" width="60" height="30" as="geometry" />
        </mxCell>
        <mxCell id="UEnZy71EDzjO0Zd2TzoT-7" value="" style="rhombus;whiteSpace=wrap;html=1;" vertex="1" parent="UEnZy71EDzjO0Zd2TzoT-1">
          <mxGeometry x="24" y="260" width="120" height="80" as="geometry" />
        </mxCell>
        <mxCell id="UEnZy71EDzjO0Zd2TzoT-8" value=": if문" style="text;html=1;align=center;verticalAlign=middle;whiteSpace=wrap;rounded=0;" vertex="1" parent="UEnZy71EDzjO0Zd2TzoT-1">
          <mxGeometry x="156" y="285" width="60" height="30" as="geometry" />
        </mxCell>
        <mxCell id="UEnZy71EDzjO0Zd2TzoT-9" value="" style="shape=cube;whiteSpace=wrap;html=1;boundedLbl=1;backgroundOutline=1;darkOpacity=0.05;darkOpacity2=0.1;size=10;" vertex="1" parent="UEnZy71EDzjO0Zd2TzoT-1">
          <mxGeometry x="19" y="10" width="130" height="90" as="geometry" />
        </mxCell>
        <mxCell id="UEnZy71EDzjO0Zd2TzoT-10" value="입력 파트" style="swimlane;whiteSpace=wrap;html=1;" vertex="1" parent="1">
          <mxGeometry x="20" y="10" width="480" height="370" as="geometry" />
        </mxCell>
      </root>
    </mxGraphModel>
  </diagram>
</mxfile>
